<?xml version="1.0" encoding="UTF-8"?><svg id="Layer_1" xmlns="http://www.w3.org/2000/svg" xmlns:xlink="http://www.w3.org/1999/xlink" viewBox="0 0 700 122.3525610419"><defs><style>.cls-1{fill:url(#linear-gradient);}.cls-1,.cls-2,.cls-3,.cls-4,.cls-5,.cls-6,.cls-7,.cls-8{stroke-width:0px;}.cls-2{fill:url(#linear-gradient-4);}.cls-3{fill:url(#linear-gradient-2);}.cls-4{fill:url(#linear-gradient-3);}.cls-5{fill:url(#linear-gradient-8);}.cls-6{fill:url(#linear-gradient-7);}.cls-7{fill:url(#linear-gradient-5);}.cls-8{fill:url(#linear-gradient-6);}</style><linearGradient id="linear-gradient" x1="40.0896176656" y1="-3.7135804875" x2="40.0896176656" y2="126.7501846379" gradientUnits="userSpaceOnUse"><stop offset="0" stop-color="#6f4600"/><stop offset="0" stop-color="#6f4600"/><stop offset=".1087588457" stop-color="#714803"/><stop offset=".1962605439" stop-color="#78510d"/><stop offset=".2763891379" stop-color="#845f1e"/><stop offset=".3520646382" stop-color="#957235"/><stop offset=".4239962216" stop-color="#ab8c54"/><stop offset=".4786260223" stop-color="#c0a471"/><stop offset=".5979388577" stop-color="#ac8d56"/><stop offset="1" stop-color="#6f4600"/></linearGradient><linearGradient id="linear-gradient-2" x1="135.5071402095" y1="-3.7135804875" x2="135.5071402095" y2="126.7501846379" gradientUnits="userSpaceOnUse"><stop offset="0" stop-color="#6f4600"/><stop offset=".0051648396" stop-color="#6f4600"/><stop offset=".1127500714" stop-color="#714803"/><stop offset=".1993075414" stop-color="#78510d"/><stop offset=".2785714702" stop-color="#845f1e"/><stop offset=".3534303584" stop-color="#957235"/><stop offset=".4245857305" stop-color="#ab8c54"/><stop offset=".4786260223" stop-color="#c0a471"/><stop offset=".5979388577" stop-color="#ac8d56"/><stop offset="1" stop-color="#6f4600"/></linearGradient><linearGradient id="linear-gradient-3" x1="235.6089721414" y1="-3.7135804875" x2="235.6089721415" y2="126.7501846379" xlink:href="#linear-gradient-2"/><linearGradient id="linear-gradient-4" x1="329.0618200573" y1="-3.7135804875" x2="329.0618200573" y2="126.7501846379" xlink:href="#linear-gradient-2"/><linearGradient id="linear-gradient-5" x1="426.4420647203" y1="-3.7135804876" x2="426.4420647203" y2="126.7501846379" xlink:href="#linear-gradient-2"/><linearGradient id="linear-gradient-6" x1="497.658478579" y1="-3.7135804876" x2="497.658478579" y2="126.7501846379" xlink:href="#linear-gradient-2"/><linearGradient id="linear-gradient-7" x1="567.372842287" y1="-3.7135804876" x2="567.3728422871" y2="126.7501846379" xlink:href="#linear-gradient-2"/><linearGradient id="linear-gradient-8" x1="664.6044559576" y1="-3.7135804876" x2="664.6044559576" y2="126.7501846379" xlink:href="#linear-gradient-2"/></defs><path class="cls-1" d="M9.9206802561,26.4664392617c0,34.1770779131,60.9442039583,35.0846040941,60.9442039583,68.9604549272,0,14.3668615718-11.189588742,24.1960922391-27.2199579391,24.1960922391-16.935942869,0-27.9759093448-11.0399063986-30.7004704351-29.3380997741-.9075261809-3.6301047237-3.0237755842-6.9551374265-6.6519277989-6.9551374265-2.4214115399,0-4.0848590879,1.509980341-4.5396134522,3.4765474008,5.2935823103,22.0780104812,21.0227845045,35.2381614169,40.8328806914,35.2381614169,20.1133058146,0,35.8405254612-13.0065936128,35.8405254612-31.0036800627,0-36.2952798254-61.5505631364-37.9586973348-61.5505631364-68.3540356719,0-11.9475527339,9.6796684782-20.2668030602,22.5346873159-20.2668030602,12.402247021,0,22.2295251792,7.7129512254,25.5564803524,19.8120186573,1.21070577,3.3269551732,3.177332907,5.2915997627,5.7463841655,5.2915997627,2.4194289923,0,4.2364338631-1.661495039,4.8408104936-3.7796969513C69.0517843616,9.2253642947,55.7439937073.3036598084,40.166396327.3036598084,23.0768961352.3036598084,9.9206802561,10.7391895765,9.9206802561,26.4664392617"/><path class="cls-3" d="M167.1909242131,2.1166695454c1.2087232224,7.1086947493,1.9646746281,21.1724067707,1.9646746281,33.423109055v45.3686191642c0,24.3477270915-11.0379839282,37.2028060063-30.0941412956,37.2028060063-19.6585214117,0-31.4564218408-13.4613780157-31.4564218408-37.2028060063V22.0804432095c0-8.4670402379.3051621366-13.7626050957,1.208753261-19.9637736641h-11.6423605587c.9055436333,6.2011685684,1.2106757314,11.4967334263,1.2106757314,19.9637736641v58.8279545551c0,26.0111446009,14.6681186905,41.1360602804,37.9567748644,41.1360602804,22.6862620911,0,35.2361488307-14.3689041966,35.2361488307-41.1360602804v-45.3686191642c0-12.2507022844,1.0571484471-26.3144143057,2.2678241785-33.423109055h-6.6519277989Z"/><path class="cls-4" d="M267.1411513312,2.1166695454c1.2107358086,7.2622520721,1.9647046667,21.4756764755,1.9647046667,33.7262586055v78.486536044L207.7088802229,2.1166695454h-9.3764888892c.9075261809,6.2011685684,1.2106757314,11.4967334263,1.2106757314,19.9637736641v64.2710690158c0,12.2507022844-.9095087285,26.4641266878-2.1201844599,33.7262586055h6.5042580416c-1.2106757314-7.2621319177-1.966627137-21.4755563211-1.966627137-33.7262586055V10.1328904756l60.9442339969,109.9448803552h9.8312132148c-.9055436333-6.201048414-1.2086931838-11.6442830291-1.2086931838-19.9636535097V35.8429281509c0-12.25058213.9055436333-26.4640065334,2.2677941399-33.7262586055h-6.6539103464Z"/><path class="cls-2" d="M298.8909301389,26.4664392617c0,34.1770779131,60.9441739197,35.0846040941,60.9441739197,68.9604549272,0,14.3668615718-11.1895587034,24.1960922391-27.2199579391,24.1960922391-16.9379254165,0-27.9778318152-11.0399063986-30.6984878875-29.3380997741-.9095087285-3.6301047237-3.0257280932-6.9551374265-6.6539103464-6.9551374265-2.4194289923,0-4.0848290493,1.509980341-4.5376309046,3.4765474008,5.2915997627,22.0780104812,21.0208319955,35.2381614169,40.8309281824,35.2381614169,20.111323267,0,35.8424779701-13.0065936128,35.8424779701-31.0036800627,0-36.2952798254-61.5505330978-37.9586973348-61.5505330978-68.3540356719,0-11.9475527339,9.677655892-20.2668030602,22.5326747297-20.2668030602,12.4022770596,0,22.2295852564,7.7129512254,25.5545578821,19.8120186573,1.2106757314,3.3269551732,3.179285416,5.2915997627,5.7483066359,5.2915997627,2.4194289923,0,4.2364639017-1.661495039,4.8408405322-3.7796969513-6.5043181188-14.5184964242-19.8101562641-23.4402009106-35.3877536445-23.4402009106-17.0895001918,0-30.2456860322,10.4355297681-30.2456860322,26.1627794533"/><path class="cls-7" d="M453.7397925946,2.1166695454c.9055436333,6.2011685684,1.2086931838,11.6463256539,1.2086931838,19.9637736641v39.4272244079c-4.7640017936-10.9769454932-15.7527824951-18.684009153-28.5231525582-18.684009153-12.7447771759,0-23.7079649903,7.6755832071-28.4877670875,18.6132382115V22.0804432095c0-8.3174480103.30122708-13.7626050957,1.2067707134-19.9637736641h-11.6423605587c.9055436333,6.2011685684,1.2106757314,11.6463256539,1.2106757314,19.9637736641v78.0336741115c0,8.3193704807-.305132098,13.7626050957-1.2106757314,19.9636535097h11.6423605587c-.9055436333-6.201048414-1.2067707134-11.6442830291-1.2067707134-19.9636535097v-27.0507204671c.3405776459-15.339391283,12.9751131601-27.7179378486,28.4877670875-27.7179378486,15.7252671376,0,28.5192475402,12.7152191936,28.5192475402,28.3479073662l.003905018,26.4207509495c0,8.3193704807-.3031495504,13.7626050957-1.2086931838,19.9636535097h11.6423605587c-.9055436333-6.201048414-1.208753261-11.6442830291-1.208753261-19.9636535097V22.0804432095c0-8.3174480103.3032096276-13.7626050957,1.208753261-19.9637736641h-11.6423605587Z"/><path class="cls-8" d="M491.8363070259,2.1166695454c.9075261809,6.2011685684,1.2107358086,11.6463256539,1.2107358086,19.9637736641v78.0336741115c0,8.3193704807-.3032096276,13.7626050957-1.2107358086,19.9636535097h11.6443431063c-.9075261809-6.201048414-1.208753261-11.6442830291-1.208753261-19.9636535097V22.0804432095c0-8.3174480103.30122708-13.7626050957,1.208753261-19.9637736641h-11.6443431063Z"/><path class="cls-6" d="M598.9050515155,2.1166695454c1.2106757314,7.2622520721,1.9647046667,21.4756764755,1.9647046667,33.7262586055v78.486536044L539.4727203299,2.1166695454h-9.3764888892c.9075261809,6.2011685684,1.208753261,11.4967334263,1.208753261,19.9637736641v64.2710690158c0,12.2507022844-.9075261809,26.4641266878-2.1182619895,33.7262586055h6.5043181188c-1.2106757314-7.2621319177-1.966627137-21.4755563211-1.966627137-33.7262586055V10.1328904756l60.9441739197,109.9448803552h9.831273292c-.9075261809-6.201048414-1.208753261-11.6442830291-1.208753261-19.9636535097V35.8429281509c0-12.25058213.9036211629-26.4640065334,2.2678542171-33.7262586055h-6.6539103464Z"/><path class="cls-5" d="M630.955997326,2.1166695454c.9055436333,6.2011685684,1.2106757314,11.6463256539,1.2106757314,19.9637736641v78.0336741115c0,8.3193704807-.305132098,13.7626050957-1.2106757314,19.9636535097h64.7239309482l2.5729863151-7.1085745949c-13.0046110653,3.4784698712-26.465989081,4.9903726826-43.1026874175,4.9903726826h-13.7586400006v-58.9795894075h11.0379839282c11.9474926567,0,18.4518107755.3031495504,27.9778918923,1.3623105838v-5.1439300055c-9.5260811168.9094486513-16.0303992356,1.3642330542-27.9778918923,1.3642330542h-11.0379839282V4.2369140825h10.886409153c12.7034440624,0,24.4993619439,1.0571184085,37.5059555568,3.9313318037l3.9313318037-6.0515763408h-62.7592863588Z"/></svg>