<?xml version="1.0" encoding="UTF-8"?><svg id="Layer_1" xmlns="http://www.w3.org/2000/svg" xmlns:xlink="http://www.w3.org/1999/xlink" viewBox="0 0 200 199.9782465136"><defs><style>.cls-1{fill:url(#linear-gradient);}.cls-1,.cls-2,.cls-3,.cls-4,.cls-5,.cls-6,.cls-7,.cls-8,.cls-9,.cls-10{stroke-width:0px;}.cls-2{fill:url(#linear-gradient-10);}.cls-3{fill:url(#linear-gradient-4);}.cls-4{fill:url(#linear-gradient-2);}.cls-5{fill:url(#linear-gradient-3);}.cls-6{fill:url(#linear-gradient-8);}.cls-7{fill:url(#linear-gradient-9);}.cls-8{fill:url(#linear-gradient-7);}.cls-9{fill:url(#linear-gradient-5);}.cls-10{fill:url(#linear-gradient-6);}</style><linearGradient id="linear-gradient" x1="51.1172649708" y1="144.2981857308" x2="148.8769830087" y2="144.2981857308" gradientUnits="userSpaceOnUse"><stop offset="0" stop-color="#6f4600"/><stop offset=".0051648396" stop-color="#6f4600"/><stop offset=".1127500714" stop-color="#714803"/><stop offset=".1993075414" stop-color="#78510d"/><stop offset=".2785714702" stop-color="#845f1e"/><stop offset=".3534303584" stop-color="#957235"/><stop offset=".4245857305" stop-color="#ab8c54"/><stop offset=".4786260223" stop-color="#c0a471"/><stop offset=".5979388577" stop-color="#ac8d56"/><stop offset="1" stop-color="#6f4600"/></linearGradient><linearGradient id="linear-gradient-2" y1="157.3236961668" y2="157.3236961668" xlink:href="#linear-gradient"/><linearGradient id="linear-gradient-3" y1="183.3718575363" y2="183.3718575363" xlink:href="#linear-gradient"/><linearGradient id="linear-gradient-4" y1="170.3492066028" y2="170.3492066028" xlink:href="#linear-gradient"/><linearGradient id="linear-gradient-5" y1="196.3973679723" y2="196.3973679723" xlink:href="#linear-gradient"/><linearGradient id="linear-gradient-6" x1="14.7663161217" y1="106.4350366471" x2="185.2317445278" y2="106.4350366471" xlink:href="#linear-gradient"/><linearGradient id="linear-gradient-7" x1="1.9061802465" y1="99.9859053595" x2="198.0909272355" y2="99.9859053595" xlink:href="#linear-gradient"/><linearGradient id="linear-gradient-8" x1="27.6188266569" y1="112.8846445184" x2="172.3792339926" y2="112.8846445184" xlink:href="#linear-gradient"/><linearGradient id="linear-gradient-9" x1="40.4646650196" y1="119.3285333847" x2="159.5333956299" y2="119.3285333847" xlink:href="#linear-gradient"/><linearGradient id="linear-gradient-10" x1="69.1797890469" y1="99.2757955739" x2="130.8182716026" y2="99.2757955739" xlink:href="#linear-gradient"/></defs><rect class="cls-1" x="51.1172649708" y="142.6282362754" width="97.7597180379" height="3.339898911"/><rect class="cls-4" x="51.1172649708" y="155.6532701276" width="97.7597180379" height="3.3408520785"/><rect class="cls-5" x="51.1172649708" y="181.7014314971" width="97.7597180379" height="3.3408520785"/><rect class="cls-3" x="51.1172649708" y="168.6792571473" width="97.7597180379" height="3.339898911"/><rect class="cls-9" x="51.1172649708" y="194.7274185168" width="97.7597180379" height="3.339898911"/><path class="cls-10" d="M100.000460076,14.8027558663C53.0026302807,14.8027558663,14.7663161217,53.1620286325,14.7663161217,100.3123652274v97.7549522004h3.3370394085v-97.7549522004c0-45.3097701574,36.7388880206-82.1725699526,81.8971045458-82.1725699526,45.1563101903,0,81.8942450433,36.8627997952,81.8942450433,82.1725699526v97.7549522004h3.3370394085v-97.7549522004c0-47.1503365949-38.234407824-85.5096093611-85.2312844518-85.5096093611Z"/><path class="cls-8" d="M100.000460076,1.9044932912C45.9110640999,1.9044932912,1.9061802465,46.0504459342,1.9061802465,100.3123652274v97.7549522004h3.3408520785v-97.7549522004C5.247032325,47.8900592043,47.7535368724,5.2405795322,100.000460076,5.2405795322c52.2459700361,0,94.7505682485,42.6494796721,94.7505682485,95.0717856952v97.7549522004h3.339898911v-97.7549522004C198.0909272355,46.0504459342,154.0879497171,1.9044932912,100.000460076,1.9044932912Z"/><path class="cls-6" d="M100.000460076,27.7019716089c-39.911029452,0-72.3816334191,32.5725928893-72.3816334191,72.6103936185v97.7549522004h3.3408520785v-97.7549522004c0-38.1962811241,30.9712714937-69.2704947075,69.0407813406-69.2704947075,38.065697177,0,69.0350623356,31.0742135834,69.0350623356,69.2704947075v97.7549522004h3.343711581v-97.7549522004c0-40.0378007291-32.4686976321-72.6103936185-72.3787739166-72.6103936185Z"/><path class="cls-7" d="M100.000460076,40.5897493415c-32.8280417786,0-59.5357950564,26.7916320175-59.5357950564,59.7226158859l.0142975125,97.7549522004h3.3370394085v-97.7549522004l-.0104848425-.6919996031c.371735324-30.7730126542,25.4371810037-55.6945300418,56.1949429779-55.6945300418,30.9846158386,0,56.1920834754,25.2951590465,56.1920834754,56.3865296449l-.0104848425,97.7549522004h3.3408520785l.0104848425-97.7549522004c0-32.9309838684-26.7068001102-59.7226158859-59.5329355539-59.7226158859Z"/><path class="cls-2" d="M126.1963624076,115.5201526487c3.0234473018-4.8687795768,4.621909195-10.4867488066,4.621909195-16.245786826,0-16.993070144-13.8247413826-30.8178115266-30.8178115266-30.8178115266-16.994976479,0-30.8206710291,13.8247413826-30.8206710291,30.8178115266,0,16.994976479,13.8256945501,30.8206710291,30.8206710291,30.8206710291,10.7345723559,0,20.5274152244-5.4483054153,26.1959023316-14.5748842031ZM100.000460076,71.7964532071c15.151550539,0,27.4779126156,12.3263620766,27.4779126156,27.4779126156,0,5.1347133086-1.4249854086,10.14265534-4.1205430913,14.4814737883-5.0565535738,8.141956763-13.7885210177,13.0031109998-23.3573695243,13.0031109998-15.155363209,0-27.4845847881-12.3292215791-27.4845847881-27.4845847881,0-15.151550539,12.3292215791-27.4779126156,27.4845847881-27.4779126156Z"/></svg>