<?xml version="1.0" encoding="UTF-8"?><svg id="Layer_1" xmlns="http://www.w3.org/2000/svg" viewBox="0 0 96.3907598628 25.0846259184"><defs><style>.cls-1{fill:#fff;stroke-width:0px;}</style></defs><rect class="cls-1" x="22.7247258125" y="6.0778209092" width="3.1519775391" height="12.9759979248"/><polygon class="cls-1" points="74.7027531563 16.769822252 69.1427555977 6.0778209092 63.8887272774 6.0778209092 63.8887272774 19.053818834 67.0387516914 19.053818834 67.0387516914 8.519822252 72.7227726875 19.053818834 77.8527165352 19.053818834 77.8527165352 6.0778209092 74.7027531563 6.0778209092 74.7027531563 16.769822252"/><polygon class="cls-1" points="12.5007267891 6.0778209092 8.84874925 12.9938212755 5.1947575508 6.0778209092 .196771711 6.0778209092 .196771711 19.053818834 3.34874925 19.053818834 3.34874925 8.9338237169 7.2787419258 16.0578166368 7.2627507149 16.0898143174 7.2967472969 16.0898143174 10.398737043 16.0898143174 10.4307194649 16.0898143174 10.4167424141 16.0578166368 14.5587712227 8.5478221299 14.5587712227 19.053818834 17.7107487617 19.053818834 17.7107487617 6.0778209092 12.5007267891 6.0778209092"/><polygon class="cls-1" points="33.9287663399 6.0778209092 30.7767277656 6.0778209092 30.7767277656 19.053818834 42.4887638985 19.053818834 42.4887638985 16.2718211534 33.9287663399 16.2718211534 33.9287663399 6.0778209092"/><path class="cls-1" d="M49.2487736641,15.2538157823c-.8360595703-.7299957275-1.25-1.6259918213-1.25-2.6879882812,0-1.0620117188.4159545898-1.9600067139,1.25-2.68800354.8319702148-.7279968262,1.8599853516-1.0940093994,3.0799560547-1.0940093994,1.2200317383,0,2.2460327148.3660125732,3.0800170898,1.0940093994s1.25,1.6259918213,1.25,2.68800354c0,1.06199646-.4180297852,1.9579925537-1.25,2.6879882812-.833984375.728012085-1.8599853516,1.0940093994-3.0800170898,1.0940093994-1.2199707031,0-2.2479858398-.3659973145-3.0799560547-1.0940093994M46.982721418,7.8198253038c-1.4400024414,1.283996582-2.1579589844,2.8679962158-2.1579589844,4.7460021973,0,1.8779907227.717956543,3.4599914551,2.1579589844,4.7439880371,1.4400024414,1.2860107422,3.2200317383,1.9280090332,5.3460083008,1.9280090332,2.1220092773,0,3.9039916992-.641998291,5.3439941406-1.9280090332,1.4400024414-1.283996582,2.1600341797-2.8659973145,2.1600341797-4.7439880371,0-1.8780059814-.7200317383-3.4620056152-2.1600341797-4.7460021973s-3.2219848633-1.9280090332-5.3439941406-1.9280090332c-2.1239624023,0-3.9060058594.6440124512-5.3460083008,1.9280090332"/><path class="cls-1" d="M87.064752668,12.7798167589l1.7239990234-4.4899902344,1.7239990234,4.4899902344h-3.450012207.0020141602ZM92.9247380196,19.053818834h3.2600097656l-4.9840087891-12.9759979248h-4.8220214844l-4.9839477539,12.9759979248h3.2599487305l1.3640136719-3.5520019531h5.5400390625l1.3659667969,3.5520019531Z"/></svg>