<?xml version="1.0" encoding="UTF-8"?><svg id="Layer_1" xmlns="http://www.w3.org/2000/svg" viewBox="0 0 47.8835511353 25.0846259184"><defs><style>.cls-1{fill:#fff;stroke-width:0px;}</style></defs><path class="cls-1" d="M.2482738684.1868144395v14.25h1.2780151367V1.0888224962c0-.4980010986-.4039916992-.9020080566-.9019775391-.9020080566H.2482738684Z"/><path class="cls-1" d="M5.708295841.1868144395v14.25h1.2780151367V3.6748210313l3.6199951172,10.7619934082h1.3319702148L7.3722973059.7248240831c-.1359863281-.3220062256-.4619750977-.5380096436-.8239746094-.5380096436h-.8400268555Z"/><path class="cls-1" d="M22.2342968176.1868144395v14.25h1.2780151367V1.0888224962c0-.4980010986-.4060058594-.9020080566-.9020385742-.9020080566h-.3759765625Z"/><path class="cls-1" d="M27.6923046301.1868144395v14.25h4.3560180664v-1.2779998779h-3.0780029297V1.0708171251c-.0079956055-.4859924316-.4120483398-.8840026855-.8980102539-.8840026855h-.3800048828Z"/><path class="cls-1" d="M34.3102855871.1868144395v14.25h4.3540039062v-1.2779998779h-3.0780029297V1.0628215196c-.0100097656-.4880065918-.4039916992-.8760070801-.8959960938-.8760070801h-.3800048828Z"/><path class="cls-1" d="M43.3022899817.1868144395l-2.5599975586,14.25h1.3060302734l2.1999511719-11.9019927979,2.2560424805,11.9019927979h1.3099975586l-2.4440307617-13.2919921875c-.0659790039-.466003418-.3819580078-.9580078125-.9259643555-.9580078125h-1.1420288086Z"/><path class="cls-1" d="M16.7562694739.1868144395v10.762008667L13.1503124426.1868144395h-1.3480224609l4.5419921875,13.6440124512c.0159912109.0439910889.2399902344.6059875488.8519897461.6059875488h.8380126953V.1868144395h-1.2780151367Z"/><path class="cls-1" d="M1.0143261145,23.3508159044h.9359741211l-.4719848633-2.1599884033-.4639892578,2.1599884033ZM2.2883129309,24.882813585l-.2520141602-1.1519927979H.9343090246l-.25,1.1519927979H.2482738684l.9300537109-4.1139984131h.6139526367l.9299926758,4.1139984131h-.4339599609Z"/><path class="cls-1" d="M5.5342846106,21.1528178575h.5440063477c.3840332031,0,.5759887695.18800354.5759887695.5579986572v.5820007324c0,.3699951172-.1919555664.5579986572-.5759887695.5579986572h-.5440063477v-1.6979980469ZM5.1003246496,20.7668162706v4.1159973145h.4339599609v-1.6539916992h.6060180664l.5999755859,1.6539916992h.4780273438l-.6560058594-1.7259979248c.3519897461-.1319885254.5260009766-.4179992676.5260009766-.8600006104v-.6039886475c0-.2860107422-.08203125-.512008667-.25-.6760101318-.1680297852-.1660003662-.4140014648-.25-.7420043945-.25h-.9959716797Z"/><path class="cls-1" d="M9.5962963293,21.6068126085v2.4360046387c0,.5800018311.367980957.8699951172,1.1019897461.8699951172.2760009766,0,.5180053711-.0319976807.7219848633-.0979919434v-.3979949951c-.2259521484.0659942627-.4639892578.0979919434-.7139892578.0979919434-.251953125,0-.4259643555-.0419921875-.5260009766-.1259918213-.0999755859-.0839996338-.1499633789-.2040100098-.1499633789-.3639984131v-2.3940124512c0-.1640014648.0479736328-.2879943848.1480102539-.3699951172.0959472656-.0839996338.2659912109-.1260070801.5059814453-.1260070801.2420043945,0,.4819946289.0340118408.7219848633.1040039062v-.4019927979c-.2360229492-.0680084229-.4719848633-.1000061035-.7080078125-.1000061035-.7340087891,0-1.1019897461.2900085449-1.1019897461.8699951172"/><polygon class="cls-1" points="15.542280216 20.7688151719 15.9822826574 20.7688151719 15.9822826574 24.882813585 15.542280216 24.882813585 15.542280216 23.0568248155 14.2322826574 23.0568248155 14.2322826574 24.882813585 13.7963085364 24.882813585 13.7963085364 20.7688151719 14.2322826574 20.7688151719 14.2322826574 22.6728221299 15.542280216 22.6728221299 15.542280216 20.7688151719"/><rect class="cls-1" x="18.3602733801" y="20.7688151719" width=".4340209961" height="4.1139984131"/><polygon class="cls-1" points="22.8882885168 20.7688151719 22.8882885168 21.1528178575 22.0923290442 21.1528178575 22.0923290442 24.882813585 21.6523266028 24.882813585 21.6523266028 21.1528178575 20.8563060949 21.1528178575 20.8563060949 20.7688151719 22.8882885168 20.7688151719"/><polygon class="cls-1" points="24.9503002356 20.7668162706 24.9503002356 24.882813585 26.7322826574 24.882813585 26.7322826574 24.4948130967 25.3843212317 24.4948130967 25.3843212317 23.002823961 26.5602855871 23.002823961 26.5602855871 22.6168223741 25.3843212317 22.6168223741 25.3843212317 21.1528178575 26.7322826574 21.1528178575 26.7322826574 20.7668162706 24.9503002356 20.7668162706"/><path class="cls-1" d="M29.1102733801,21.6068126085v2.4360046387c0,.5800018311.366027832.8699951172,1.1020507812.8699951172.2760009766,0,.5180053711-.0319976807.7199707031-.0979919434v-.3979949951c-.2239990234.0659942627-.4619750977.0979919434-.7119750977.0979919434-.2520141602,0-.4260253906-.0419921875-.5280151367-.1259918213-.0980224609-.0839996338-.1480102539-.2040100098-.1480102539-.3639984131v-2.3940124512c0-.1640014648.048034668-.2879943848.1459960938-.3699951172.0980224609-.0839996338.2680053711-.1260070801.5079956055-.1260070801.2420043945,0,.4819946289.0340118408.7219848633.1040039062v-.4019927979c-.2359619141-.0680084229-.4719848633-.1000061035-.7079467773-.1000061035-.7360229492,0-1.1020507812.2900085449-1.1020507812.8699951172"/><polygon class="cls-1" points="35.0283031653 20.7688151719 35.0283031653 21.1528178575 34.2322826574 21.1528178575 34.2322826574 24.882813585 33.790327091 24.882813585 33.790327091 21.1528178575 32.9943065832 21.1528178575 32.9943065832 20.7688151719 35.0283031653 20.7688151719"/><path class="cls-1" d="M38.724287052,20.7668162706v3.1979980469c0,.3899993896-.200012207.5859985352-.5999755859.5859985352-.4020385742,0-.6019897461-.1959991455-.6019897461-.5859985352v-3.1979980469h-.4340209961v3.2080078125c0,.2899932861.0880126953.5240020752.2600097656.7019958496.1740112305.175994873.4320068359.2660064697.7760009766.2660064697.3419799805,0,.5999755859-.0900115967.7739868164-.2660064697.1719970703-.1779937744.2600097656-.4120025635.2600097656-.7019958496v-3.2080078125h-.4340209961Z"/><path class="cls-1" d="M41.9703197668,21.1528178575h.5440063477c.383972168,0,.5759887695.18800354.5759887695.5579986572v.5820007324c0,.3699951172-.1920166016.5579986572-.5759887695.5579986572h-.5440063477v-1.6979980469ZM41.5362987707,20.7668162706v4.1159973145h.4340209961v-1.6539916992h.6059570312l.6000366211,1.6539916992h.4779663086l-.6560058594-1.7259979248c.3520507812-.1319885254.5280151367-.4179992676.5280151367-.8600006104v-.6039886475c0-.2860107422-.083984375-.512008667-.2520141602-.6760101318-.16796875-.1660003662-.4140014648-.25-.7399902344-.25h-.9979858398Z"/><polygon class="cls-1" points="46.0322704504 20.7668162706 46.0322704504 24.882813585 47.8143139074 24.882813585 47.8143139074 24.4948130967 46.4662914465 24.4948130967 46.4662914465 23.002823961 47.640302677 23.002823961 47.640302677 22.6168223741 46.4662914465 22.6168223741 46.4662914465 21.1528178575 47.8143139074 21.1528178575 47.8143139074 20.7668162706 46.0322704504 20.7668162706"/></svg>