<?xml version="1.0" encoding="UTF-8"?><svg id="Layer_1" xmlns="http://www.w3.org/2000/svg" viewBox="0 0 101.9092214763 25.0846259184"><defs><style>.cls-1{fill:#fff;stroke-width:0px;}</style></defs><path class="cls-1" d="M54.2825285582.1868144395v6.8280029297c0,1.4140014648-1.1279296875,2.5660095215-2.5139160156,2.5660095215s-2.5140380859-1.1520080566-2.5140380859-2.5660095215V.1868144395h-2.1719970703v6.8280029297c0,2.6360015869,2.1020507812,4.783996582,4.6860351563,4.783996582,2.5819091797,0,4.6859130859-2.1479949951,4.6859130859-4.783996582V.1868144395h-2.1719970703Z"/><path class="cls-1" d="M.0905729918,5.990815294c0,3.2040100098,2.5440063477,5.8040008545,5.6820068359,5.8040008545,1.3920288086,0,2.6640014648-.5119934082,3.6519775391-1.358001709l-1.2459716797-1.8359985352c-.6300048828.6060028076-1.4760131836.9759979248-2.4060058594.9759979248-1.9359741211,0-3.5120239258-1.6100006104-3.5120239258-3.5859985352,0-1.9779968262,1.5760498047-3.5859985352,3.5120239258-3.5859985352.9299926758,0,1.7760009766.370010376,2.4060058594.9739990234l1.2459716797-1.8339996338c-.9879760742-.8479919434-2.2599487305-1.358001709-3.6519775391-1.358001709C2.6345793394.1868144395.0905729918,2.7848216417.0905729918,5.990815294"/><polygon class="cls-1" points="30.2526213316 7.9888163926 24.9645353941 .1868144395 22.7946135191 .1868144395 22.7946135191 11.7948161485 24.9645353941 11.7948161485 24.9645353941 3.9928141954 30.2526213316 11.7948161485 32.4225432066 11.7948161485 32.4225432066 .1868144395 30.2526213316 .1868144395 30.2526213316 7.9888163926"/><polygon class="cls-1" points="35.3125578551 .1868144395 35.3125578551 2.4028178575 38.6665617613 2.4028178575 38.6665617613 11.7948161485 40.8366057066 11.7948161485 40.8366057066 2.4028178575 44.1925627379 2.4028178575 44.1925627379 .1868144395 35.3125578551 .1868144395"/><polygon class="cls-1" points="95.176571527 .1868144395 95.176571527 2.4028178575 96.3585783629 2.4028178575 96.3585783629 11.7948161485 98.5286223082 11.7948161485 98.5286223082 .1868144395 95.176571527 .1868144395"/><polygon class="cls-1" points="12.3205534605 .1868144395 12.3205534605 11.7948161485 19.8965422301 11.7948161485 19.8965422301 9.5768138292 14.4905974059 9.5768138292 14.4905974059 7.098817003 18.8325773863 7.098817003 18.8325773863 4.882813585 14.4905974059 4.882813585 14.4905974059 2.4028178575 19.8965422301 2.4028178575 19.8965422301 .1868144395 12.3205534605 .1868144395"/><path class="cls-1" d="M61.5165373473,2.4048167589h2.7360839844c.9079589844,0,1.6459960938.7539978027,1.6459960938,1.6780090332,0,.9279937744-.7380371094,1.6819915771-1.6459960938,1.6819915771h-2.7360839844v-3.3600006104ZM59.3466154723.1868144395v11.608001709h2.169921875v-3.8139953613h1.3859863281l2.5860595703,3.8139953613h2.5799560547l-2.6999511719-3.9839935303c1.5620117188-.4900054932,2.6999511719-1.9739990234,2.6999511719-3.7279968262,0-2.1460113525-1.7119140625-3.8960113525-3.8159179688-3.8960113525h-4.9060058594Z"/><polygon class="cls-1" points="78.0105559019 .1868144395 74.828549066 4.8808146837 71.6465422301 .1868144395 69.0665861754 .1868144395 73.742611566 7.0868235948 73.742611566 11.7948161485 75.9146086363 11.7948161485 75.9146086363 7.0868235948 80.590634027 .1868144395 78.0105559019 .1868144395"/><path class="cls-1" d="M85.5866057066,3.8568126085c0,.0440063477,0,.0900115967.001953125.1360015869h2.1740722656c-.0040283203-.0439910889-.0061035156-.0919952393-.0061035156-.1360015869,0-.8019866943.6380615234-1.4519958496,1.4219970703-1.4519958496.7860107422,0,1.4600830078.6060028076,1.4219970703,1.4519958496-.0159912109.3720092773-.3359375.9460144043-.4559326172,1.1260070801-.1219482422.1820068359-4.6180419922,6.81199646-4.6180419922,6.81199646h7.4580078125v-2.2180023193h-3.3159179688l2.4359130859-3.5899963379.0560302734-.0839996338c.3859863281-.5839996338.6120605469-1.2879943848.6120605469-2.046005249,0-.299987793-.0360107422-.5899963379-.1020507812-.8679962158-.3800048828-1.608001709-1.8000488281-2.8020019531-3.4920654297-2.8020019531-1.9819335938,0-3.5919189453,1.641998291-3.5919189453,3.6699981689"/><path class="cls-1" d="M100.4566008238,10.2768260362h.2999267578c.0600585938,0,.1060791016.0139923096.1400146484.0439910889.0340576172.0279998779.0500488281.0700073242.0500488281.1260070801,0,.1139984131-.0660400391.1739959717-.1900634766.1739959717h-.2999267578v-.3439941406ZM100.2645842223,10.0928202989v1.1860046387h.1920166016v-.4700012207h.169921875l.3240966797.4700012207h.2419433594l-.3480224609-.4800109863c.0939941406-.0159912109.166015625-.0540008545.2180175781-.1159973145.0540771484-.0639953613.080078125-.141998291.080078125-.2359924316,0-.1060028076-.0340576172-.1940002441-.1040039062-.2559967041-.0720214844-.0640106201-.1640625-.0980072021-.2821044922-.0980072021h-.4919433594ZM100.2385832457,11.4928141954c-.1340332031-.0779876709-.2419433594-.1859893799-.3139648438-.3259887695-.0760498047-.1399993896-.1140136719-.2980041504-.1140136719-.4800109863,0-.1779937744.0379638672-.3379974365.1140136719-.4759979248.0720214844-.1380004883.1799316406-.2480010986.3139648438-.3239898682.1359863281-.0800018311.2900390625-.1180114746.4599609375-.1180114746.1700439453,0,.3240966797.0380096436.4580078125.1180114746.1340332031.0759887695.2399902344.1859893799.3160400391.3239898682.0739746094.1380004883.1140136719.2980041504.1140136719.4759979248,0,.1820068359-.0400390625.3400115967-.1140136719.4800109863-.0760498047.1399993896-.1820068359.2480010986-.3160400391.3259887695-.1339111328.0760040283-.2879638672.1160125732-.4580078125.1160125732-.169921875,0-.3239746094-.0400085449-.4599609375-.1160125732M100.1405607848,9.7208262803c-.1619873047.0919952393-.2919921875.2259979248-.3859863281.391998291-.0939941406.1719970703-.1400146484.3619995117-.1400146484.5739898682,0,.216003418.0460205078.4080047607.1400146484.5760040283.0939941406.1699981689.2239990234.3020019531.3859863281.3939971924.166015625.092010498.3520507812.141998291.5579833984.141998291.2060546875,0,.3920898438-.049987793.5560302734-.141998291.1640625-.0919952393.2919921875-.2239990234.3859863281-.3939971924.0960693359-.1679992676.1419677734-.3600006104.1419677734-.5760040283,0-.2119903564-.0458984375-.4019927979-.1419677734-.5739898682-.0939941406-.1660003662-.2219238281-.3000030518-.3859863281-.391998291-.1639404297-.0940093994-.3499755859-.1399993896-.5560302734-.1399993896-.2059326172,0-.3919677734.0459899902-.5579833984.1399993896"/><path class="cls-1" d="M16.7905851988,18.2608195665c-.4279785156.2220001221-.7640380859.533996582-1.0100097656.9360046387-.2440185547.3999938965-.3659667969.858001709-.3659667969,1.3719940186,0,.512008667.1199951172.9680023193.3619995117,1.3679962158.2439575195.4000091553.5779418945.7140045166,1.0059204102.9400024414.4300537109.2259979248.9100341797.3379974365,1.4420166016.3379974365.4760742188,0,.9200439453-.0899963379,1.33203125-.271987915.4119873047-.1820068359.7440185547-.4459991455.9959716797-.7900085449l-.7359619141-.5419921875c-.1719970703.2399902344-.3959960938.4199981689-.6739501953.5439910889-.2780761719.1240081787-.5841064453.1860046387-.9180908203.1860046387-.3640136719,0-.6920166016-.0760040283-.9799804688-.2259979248-.2879638672-.1500091553-.5119628906-.3600006104-.6719970703-.6280059814-.1579589844-.2659912109-.2380371094-.5719909668-.2380371094-.9179992676,0-.3439941406.08203125-.6499938965.24609375-.9199981689.166015625-.2700042725.3900146484-.4799957275.6779785156-.6280059814.2879638672-.1459960938.6119384766-.2220001221.9739990234-.2220001221.3139648438,0,.6040039062.0559997559.8719482422.1679992676.2659912109.1119995117.4860839844.2680053711.6640625.4740142822l.7479248047-.512008667c-.2340087891-.3000030518-.5479736328-.5419921875-.9439697266-.7279968262-.3979492188-.1840057373-.8439941406-.2779998779-1.3399658203-.2779998779-.5319824219,0-1.0140380859.1139984131-1.4420166016.3379974365"/><path class="cls-1" d="M22.3466154723,22.1048137071c-.2260742188-.2059936523-.3380126953-.4779968262-.3380126953-.8139953613,0-.3399963379.1119384766-.6139984131.3380126953-.8219909668.2259521484-.2080078125.5219726562-.3140106201.8879394531-.3140106201.3680419922,0,.6640625.1060028076.8900146484.3140106201.2259521484.2079925537.3380126953.4819946289.3380126953.8219909668,0,.3359985352-.1120605469.608001709-.3380126953.8139953613-.2259521484.2060089111-.5219726562.3100128174-.8900146484.3100128174-.3659667969,0-.6619873047-.1040039062-.8879394531-.3100128174M22.1686369566,19.6048137071c-.3160400391.1620025635-.5640869141.3899993896-.74609375.6840057373-.1799316406.296005249-.2700195312.6280059814-.2700195312,1.0019989014,0,.3740081787.0900878906.7080078125.2700195312,1,.1820068359.2920074463.4300537109.5180053711.74609375.6800079346.3159179688.1639862061.6719970703.2439880371,1.0659179688.2439880371.3959960938,0,.75-.0800018311,1.0679931641-.2439880371.3160400391-.1620025635.5640869141-.3880004883.7440185547-.6800079346.1820068359-.2919921875.2719726562-.6259918213.2719726562-1,0-.3739929199-.0899658203-.7059936523-.2719726562-1.0019989014-.1799316406-.2940063477-.4279785156-.5220031738-.7440185547-.6840057373-.3179931641-.1639862061-.6719970703-.2439880371-1.0679931641-.2439880371-.3939208984,0-.75.0800018311-1.0659179688.2439880371"/><path class="cls-1" d="M27.5825773863,19.5208140733c-.2299804688.108001709-.4139404297.2560119629-.5500488281.4520111084l-.0499267578-.5180053711h-.7359619141v3.6660003662h.833984375v-2.1000061035c0-.2659912109.1099853516-.4779968262.3259277344-.6339874268.2160644531-.154006958.4680175781-.2320098877.7540283203-.2320098877.2740478516,0,.4959716797.0760040283.6640625.2299957275.1639404297.1520080566.25.3520050049.25.6000061035v2.1360015869h.8319091797v-2.296005249c0-.2859954834-.0659179688-.5419921875-.2020263672-.7639923096-.1359863281-.2239990234-.3218994141-.3959960938-.5639648438-.5200042725-.2399902344-.1199951172-.5079345703-.1799926758-.8020019531-.1799926758-.2760009766,0-.5279541016.0540008545-.7559814453.1599884033"/><path class="cls-1" d="M31.9885832457,22.1048137071c-.2259521484-.2059936523-.3380126953-.4779968262-.3380126953-.8139953613,0-.3399963379.1120605469-.6139984131.3380126953-.8219909668.2259521484-.2080078125.5219726562-.3140106201.8879394531-.3140106201.3660888672,0,.6640625.1060028076.8880615234.3140106201.2259521484.2079925537.3399658203.4819946289.3399658203.8219909668,0,.3359985352-.1140136719.608001709-.3399658203.8139953613-.2239990234.2060089111-.5219726562.3100128174-.8880615234.3100128174-.3659667969,0-.6619873047-.1040039062-.8879394531-.3100128174M31.8106047301,19.6048137071c-.3179931641.1620025635-.5660400391.3899993896-.7459716797.6840057373-.1820068359.296005249-.2720947266.6280059814-.2720947266,1.0019989014,0,.3740081787.0900878906.7080078125.2720947266,1,.1799316406.2920074463.4279785156.5180053711.7459716797.6800079346.3159179688.1639862061.669921875.2439880371,1.0659179688.2439880371.3940429688,0,.7520751953-.0800018311,1.0681152344-.2439880371.3159179688-.1620025635.5639648438-.3880004883.7459716797-.6800079346.1799316406-.2919921875.2719726562-.6259918213.2719726562-1,0-.3739929199-.0920410156-.7059936523-.2719726562-1.0019989014-.1820068359-.2940063477-.4300537109-.5220031738-.7459716797-.6840057373-.3160400391-.1639862061-.6740722656-.2439880371-1.0681152344-.2439880371-.3959960938,0-.75.0800018311-1.0659179688.2439880371"/><rect class="cls-1" x="35.9246184019" y="17.6568156602" width=".8360595703" height="5.4640045166"/><rect class="cls-1" x="37.9885832457" y="17.6568156602" width=".833984375" height="5.4640045166"/><polygon class="cls-1" points="43.7326018004 19.4548198106 41.4845549254 24.6008159044 40.6906096129 24.6008159044 41.2905851988 23.1428233506 39.5845305113 19.4548198106 40.492611566 19.4548198106 41.7045256285 22.144822252 42.8185393004 19.4548198106 43.7326018004 19.4548198106"/><polygon class="cls-1" points="51.3325773863 18.0188151719 51.3325773863 23.1208201768 50.4465910582 23.1208201768 50.4465910582 20.9628154161 47.5646330504 20.9628154161 47.5646330504 23.1208201768 46.6785246519 23.1208201768 46.6785246519 18.0188151719 47.5646330504 18.0188151719 47.5646330504 20.1188212755 50.4465910582 20.1188212755 50.4465910582 18.0188151719 51.3325773863 18.0188151719"/><path class="cls-1" d="M53.4805266051,22.3588267686c-.1279296875-.0839996338-.1939697266-.2060089111-.1939697266-.3600006104,0-.1800079346.080078125-.3140106201.2399902344-.4020080566.1600341797-.0859985352.3740234375-.1300048828.6459960938-.1300048828.3620605469,0,.7020263672.0480041504,1.0220947266.1440124512,0,.1779937744-.0600585938.3279876709-.1760253906.4599914551-.1160888672.1320037842-.2659912109.2340087891-.4460449219.3059997559-.1820068359.074005127-.3699951172.1100006104-.5699462891.1100006104-.2200927734,0-.3920898438-.0419921875-.5220947266-.1279907227M53.4285246519,19.502823961c-.2939453125.0939941406-.5439453125.2180023193-.75390625.3759918213l.3359375.6180114746c.166015625-.1220092773.3560791016-.2120056152.5700683594-.2720031738.2139892578-.0620117188.4279785156-.092010498.6419677734-.092010498.6479492188,0,.9720458984.2680053711.9720458984.8020019531v.0800018311c-.3861083984-.1060028076-.7740478516-.1600036621-1.166015625-.1600036621-.4360351562,0-.8120117188.0980072021-1.1220703125.2940063477-.3120117188.1959991455-.4680175781.4940032959-.4680175781.8860015869,0,.2480010986.0640869141.4620056152.1920166016.641998291.1300048828.1779937744.2979736328.3139953613.5080566406.404006958.2080078125.0899963379.4360351562.1339874268.6779785156.1339874268.2819824219,0,.5500488281-.0559997559.8060302734-.1699981689s.4619140625-.2760009766.6140136719-.4839935303l.0559082031.5599975586h.7301025391v-2.1999969482c0-.5140075684-.1440429688-.904006958-.4260253906-1.1660003662-.2819824219-.2640075684-.6920166016-.3939971924-1.2299804688-.3939971924-.3341064453,0-.6480712891.0459899902-.9381103516.141998291"/><polygon class="cls-1" points="60.7385832457 19.4548198106 58.4905363707 24.6008159044 57.6985441832 24.6008159044 58.2986418394 23.1428233506 56.5925871519 19.4548198106 57.4985930113 19.4548198106 58.7125822691 22.144822252 59.824642816 19.4548198106 60.7385832457 19.4548198106"/><path class="cls-1" d="M64.7545744566,18.2568217637c-.4360351562.2220001221-.7779541016.5299987793-1.0279541016.9319915771-.2520751953.4020080566-.3760986328.858001709-.3760986328,1.3740081787,0,.5139923096.1240234375.9739990234.3680419922,1.3759918213.2440185547.4060058594.583984375.7180023193,1.0159912109.9420013428s.91796875.3339996338,1.4580078125.3339996338c.5219726562,0,.9899902344-.1059875488,1.4060058594-.3199920654.4119873047-.2140045166.7359619141-.5140075684.9699707031-.904006958.2320556641-.3880004883.3480224609-.8320007324.3480224609-1.3339996338,0-.0679931641-.0040283203-.1319885254-.0100097656-.1920013428-.0079345703-.0599975586-.0119628906-.1119995117-.0119628906-.1479949951h-2.6820068359v.7859954834h1.7199707031c-.0859375.4020080566-.2819824219.7100067139-.5880126953.9220123291-.3079833984.2119903564-.6899414062.3159942627-1.1479492188.3159942627-.3740234375,0-.7080078125-.0760040283-1.001953125-.2259979248-.2921142578-.1500091553-.5180664062-.3600006104-.6800537109-.6300048828-.1619873047-.2680053711-.2440185547-.5760040283-.2440185547-.9219970703,0-.3439941406.08203125-.6500091553.2440185547-.9179992676.1619873047-.2660064697.3859863281-.4759979248.6779785156-.6240081787.2900390625-.1459960938.6240234375-.2220001221,1.0040283203-.2220001221.3060302734,0,.5880126953.0500030518.8459472656.1480102539.2600097656.1019897461.4820556641.2519989014.6680908203.4499969482l.6799316406-.6060028076c-.2640380859-.2799987793-.58203125-.4960021973-.9599609375-.6439971924-.3800048828-.1479949951-.7879638672-.2239990234-1.2239990234-.2239990234-.5360107422,0-1.0200195312.1119995117-1.4520263672.3339996338"/><path class="cls-1" d="M71.2006193785,19.5388194444c-.2220458984.1199951172-.4040527344.283996582-.5419921875.4920043945l-.0500488281-.5760040283h-.7359619141v3.6660003662h.8280029297v-2.0039978027c0-.1999969482.0520019531-.3699951172.1539306641-.5140075684.1020507812-.1439971924.2360839844-.2519989014.4000244141-.3279876709.1640625-.0760040283.3380126953-.1120147705.5240478516-.1120147705.1539306641,0,.3059082031.0260009766.4639892578.0800018311l.2440185547-.8019866943c-.1820068359-.0540008545-.3620605469-.0800018311-.5440673828-.0800018311-.2700195312,0-.5179443359.0579986572-.7419433594.1779937744"/><path class="cls-1" d="M73.9365812926,22.1048137071c-.2239990234-.2059936523-.3380126953-.4779968262-.3380126953-.8139953613,0-.3399963379.1140136719-.6139984131.3380126953-.8219909668.2280273438-.2080078125.5219726562-.3140106201.8900146484-.3140106201.3659667969,0,.6619873047.1060028076.8879394531.3140106201.2260742188.2079925537.3400878906.4819946289.3400878906.8219909668,0,.3359985352-.1140136719.608001709-.3400878906.8139953613-.2259521484.2060089111-.5219726562.3100128174-.8879394531.3100128174-.3680419922,0-.6619873047-.1040039062-.8900146484-.3100128174M73.7586027769,19.6048137071c-.3160400391.1620025635-.5639648438.3899993896-.7440185547.6840057373-.1820068359.296005249-.2719726562.6280059814-.2719726562,1.0019989014,0,.3740081787.0899658203.7080078125.2719726562,1,.1800537109.2920074463.4279785156.5180053711.7440185547.6800079346.3179931641.1639862061.6739501953.2439880371,1.0679931641.2439880371s.75-.0800018311,1.0679931641-.2439880371c.3139648438-.1620025635.5639648438-.3880004883.7440185547-.6800079346.1799316406-.2919921875.2719726562-.6259918213.2719726562-1,0-.3739929199-.0920410156-.7059936523-.2719726562-1.0019989014-.1800537109-.2940063477-.4300537109-.5220031738-.7440185547-.6840057373-.3179931641-.1639862061-.6739501953-.2439880371-1.0679931641-.2439880371s-.75.0800018311-1.0679931641.2439880371"/><path class="cls-1" d="M80.4845549254,19.4548198106v2.1000061035c0,.2659912109-.0959472656.4759979248-.2879638672.629989624-.1939697266.1520080566-.4219970703.2320098877-.6879882813.2360076904-.2580566406,0-.4739990234-.0700073242-.6459960938-.2080078125-.1740722656-.1380004883-.2620849609-.3280029297-.2620849609-.5699920654v-2.18800354h-.833984375v2.296005249c0,.2879943848.0679931641.5419921875.2041015625.7599945068.1359863281.2220001221.3199462891.3959960938.5520019531.5200042725.2338867188.1239929199.4919433594.1839904785.7779541016.1839904785.2659912109,0,.5059814453-.0540008545.7199707031-.1599884033.2139892578-.1060028076.3859863281-.2560119629.5159912109-.4520111084l.0400390625.5180053711h.7359619141v-3.6660003662h-.8280029297Z"/><path class="cls-1" d="M83.5405851988,22.1048137071c-.2299804688-.2059936523-.3420410156-.4779968262-.3420410156-.8139953613,0-.3399963379.1120605469-.6139984131.3380126953-.8219909668.2260742188-.2080078125.5219726562-.3140106201.8900146484-.3140106201.3599853516,0,.6519775391.1060028076.8759765625.3140106201.2220458984.2079925537.3360595703.4799957275.3360595703.8159942627,0,.3399963379-.1140136719.6139984131-.3360595703.8199920654-.2239990234.2060089111-.5159912109.3100128174-.8759765625.3100128174-.3619384766,0-.6579589844-.1040039062-.8859863281-.3100128174M83.7805754332,19.5208140733c-.2319335938.108001709-.41796875.2560119629-.5599365234.4520111084l-.0440673828-.5180053711h-.7440185547v5.4880065918h.8280029297v-2.2660064697c.1480712891.1699981689.33203125.3040008545.5520019531.3959960938.2180175781.0960083008.4620361328.141998291.7340087891.141998291.3620605469,0,.6920166016-.0800018311.9880371094-.2439880371.2979736328-.1620025635.5319824219-.3899993896.7080078125-.6840057373.1719970703-.2940063477.2579345703-.6260070801.2579345703-.9960021973,0-.3739929199-.0859375-.7059936523-.2579345703-1.0019989014-.1760253906-.2940063477-.4100341797-.5220031738-.7080078125-.6840057373-.2960205078-.1639862061-.6220703125-.2439880371-.9739990234-.2439880371-.2900390625,0-.5500488281.0540008545-.7800292969.1599884033"/></svg>